PathFileType	4	(X/Y/Z)	C:/Users/beibeiliu/ov580/test_trc/User3\sequence.28_training_dense_right.trc
DataRate	CameraRate	NumFrames	NumMarkers	Units	OrigDataRate	OrigDataStartFrame	OrigNumFrames
120	120	23	19	mm	120	95	252
Frame#	Time	ThumbCMC			ThumbMCP			ThumbIP			ThumbTip			IndexMCP			IndexPIP			IndexTip			MiddleMCP			MiddlePIP			MiddleTip			RingMCP			RingPIP			RingTip			PinkyMCP			PinkyPIP			PinkyTip			BackHand1			BackHand2			BackHand3	
		X0	Y0	Z0	X1	Y1	Z1	X2	Y2	Z2	X3	Y3	Z3	X4	Y4	Z4	X5	Y5	Z5	X6	Y6	Z6	X7	Y7	Z7	X8	Y8	Z8	X9	Y9	Z9	X10	Y10	Z10	X11	Y11	Z11	X12	Y12	Z12	X13	Y13	Z13	X14	Y14	Z14	X15	Y15	Z15	X16	Y16	Z16	X17	Y17	Z17	X18	Y18	Z18	
94	0.783333	120.909	25.414	56.007	94.4668	27.3336	36.7719	73.996	31.0173	9.92039	62.5196	26.8043	-10.7077	116.11	49.7743	-20.2992	102.799	57.9039	-40.5879	93.5506	66.2951	-57.8682	122.359	31.0721	-32.1173	100.594	24.4601	-52.8363	76.9482	15.0644	-71.5167	139.468	15.5211	-34.8763	129.674	12.3529	-53.8787	118.394	11.0872	-76.6769	155.41	-4.89576	-22.4008	154.261	-8.37922	-43.5397	157.517	-10.1182	-68.0496	168.439	14.0755	12.8941	177.997	8.23134	39.0792	153.563	37.9125	41.2277	
95	0.791667	111.144	25.0888	59.4835	86.0335	25.5978	41.0384	66.7587	27.8726	12.7791	59.9848	23.139	-5.49473	104.776	53.0943	-10.3802	91.06	58.5874	-33.2491	79.437	65.291	-51.2211	120.523	35.3051	-27.253	100.056	34.1467	-49.3919	82.4551	27.6255	-73.0047	135.403	24.8576	-27.6699	126.443	24.2116	-49.7429	116.852	24.1915	-74.2525	154.251	4.29431	-21.6228	155.063	0.631151	-43.7163	157.509	0.537448	-63.1963	162.294	24.2256	18.9572	173.698	15.8514	44.2395	145.115	38.6454	41.5501	
96	0.8	104.813	23.7691	61.9713	84.083	21.8684	38.6891	64.8693	22.5109	17.8537	54.4128	19.5139	-4.28934	95.3438	54.5337	-6.61253	80.3254	59.264	-24.7797	72.4994	62.5464	-47.8899	113.104	45.3722	-26.2681	103.446	44.9709	-49.5685	87.4006	47.1407	-71.7425	134.304	29.4799	-25.0039	124.052	33.6198	-51.3157	113.074	38.5724	-72.767	155.612	8.33854	-19.1805	150.237	11.1241	-41.9869	157.396	11.9083	-59.1362	156.01	28.2027	24.1556	166.457	21.9895	47.9117	137.954	40.0573	50.1442	
97	0.808333	99.6181	19.8593	63.6254	80.4348	18.6992	42.0919	57.6646	19.1664	21.2465	52.762	15.5302	-3.92213	91.8886	53.8553	-4.7374	74.6914	57.2736	-24.4721	62.7596	60.9366	-45.6288	112.17	54.4239	-20.8913	102.372	59.4242	-42.2435	91.6195	66.5542	-70.8495	130.752	38.4761	-24.5524	127.103	42.446	-44.9914	119.407	48.8408	-69.6479	149.944	17.5261	-17.4051	152.206	17.4629	-41.4056	156.196	23.1972	-60.8541	152.823	31.7864	23.77	163.733	26.0287	49.9203	130.237	41.299	51.5868	
98	0.816667	97.9828	15.2521	67.8226	75.4142	13.5891	46.9091	59.3838	15.1125	21.3783	48.9722	13.3678	-3.76364	87.5795	54.2524	-1.5147	71.9279	58.2867	-22.5863	54.0379	62.7658	-42.3795	112.094	59.7001	-15.1338	101.848	70.2755	-38.3682	91.1094	80.7653	-59.0723	130.723	44.6764	-16.5752	125.429	53.4973	-38.2145	119.099	62.3121	-61.3155	152.979	23.333	-14.0625	147.334	31.1445	-37.2153	151.513	35.9935	-56.1455	147.22	35.9319	30.5438	162.015	27.2532	55.3262	123.083	41.7796	53.7338	
99	0.825	95.8215	13.3321	67.3195	75.495	10.411	45.7609	56.3	13.1193	19.6999	46.4515	11.6649	-3.34252	81.2317	54.6295	4.32502	66.1797	60.6117	-15.3816	52.1794	64.9994	-40.5031	105.372	64.6932	-7.5555	98.5462	74.9017	-28.3336	86.9457	91.4501	-50.5643	127.339	52.9376	-12.0338	125.028	64.7081	-33.8471	120.054	75.8976	-55.5803	151.791	33.6564	-12.3769	152.232	38.7285	-32.5757	151.969	50.5105	-49.9421	144.533	39.4515	30.6954	160.358	31.1317	57.1707	120.283	39.3456	57.611	
100	0.833333	96.9088	8.95684	67.535	72.5253	6.59243	47.4744	54.7003	6.54119	24.3172	48.2542	9.44302	-0.760225	81.4582	55.6634	6.63432	62.8468	64.7484	-13.048	52.8768	69.7405	-32.2614	105.076	66.1758	-1.82879	96.7373	82.1323	-22.2327	85.62	98.8821	-40.9555	127.066	57.4551	-4.20196	121.383	73.5894	-23.9534	116.085	89.2425	-47.8938	148.939	38.8123	-5.03713	148.318	47.9723	-23.4509	154.157	59.7833	-43.3821	140.038	41.2332	37.4098	157.359	33.229	59.8679	118.415	40.0284	60.9713	
101	0.841667	93.0083	7.97797	66.8816	74.8727	5.37186	45.0177	51.4319	6.21987	23.4267	41.8795	3.80504	6.46325	75.4673	56.7997	11.7705	60.8727	65.8899	-5.45204	49.0386	76.0398	-27.6592	103.209	70.1125	3.17405	93.6855	84.4452	-12.9144	82.647	107.582	-34.1733	122.693	61.5437	1.15343	120.527	77.7301	-17.4398	115.36	95.0864	-37.3595	146.677	41.6741	-0.168029	149.466	54.3877	-20.4906	154.52	68.9223	-35.5521	141.461	40.8616	42.0207	153.07	31.899	65.3767	117.824	38.6027	62.5304	
102	0.85	96.1599	6.35377	67.325	73.097	2.74694	48.092	49.7477	3.86923	25.9941	41.8531	1.63139	9.18325	78.8464	56.5456	15.3218	63.4228	68.7436	-1.43893	49.7451	80.7929	-20.0238	104.54	69.6656	8.61978	95.534	89.8169	-9.74425	86.2385	112.955	-30.6598	126.304	60.7225	4.23666	121.677	79.4223	-12.0518	118.115	98.135	-30.411	148.137	46.1047	0.555185	152.269	56.1993	-16.061	158.378	70.0867	-30.6747	137.862	44.5363	40.8804	154.371	33.0286	68.2255	117.704	37.6539	64.5573	
103	0.858333	93.2499	4.85564	70.7514	73.9243	2.50961	48.7991	52.8379	3.53468	28.385	36.3239	3.85917	8.83235	80.0197	59.6738	14.481	60.5064	72.3921	0.437895	46.3463	85.2963	-14.7039	107.345	69.9014	9.30139	94.3562	90.8737	-6.73768	84.6876	112.21	-24.1955	125.455	63.7624	5.55866	124.704	79.8204	-9.39764	122.248	99.1311	-27.4258	151.37	46.3857	1.60427	152.905	56.3631	-12.4376	159.388	71.268	-26.5831	140.772	43.9135	42.4784	152.21	33.2098	69.4285	113.408	37.0157	67.8286	
104	0.866667	97.5433	4.51505	69.2216	70.4323	2.61134	49.3691	52.3584	4.14488	27.843	38.9782	2.36183	11.4694	78.3841	57.7724	19.6062	60.8281	73.8767	3.56303	51.7853	87.713	-13.2427	103.424	72.1734	11.7163	98.9755	90.9675	-5.05737	90.8484	113.446	-22.8935	128.882	63.1642	6.06374	124.323	82.3277	-8.73402	127.098	100.539	-27.9678	151.482	44.0541	4.41847	155.926	55.5048	-12.9114	159.913	73.6653	-28.8788	141.531	42.2278	46.4284	154.315	30.7274	69.9721	118.294	34.8784	66.3581	
105	0.875	95.6344	6.09148	68.7348	71.5523	2.09565	48.5863	49.2453	3.27737	27.684	36.5219	3.15142	10.0924	79.5163	59.8164	17.9218	63.9031	73.1398	4.26447	53.1652	87.5127	-10.016	107.218	71.1671	11.0975	101.619	89.0659	-3.233	92.6048	114.378	-21.761	128.061	64.4279	5.12911	126.257	82.0729	-9.58038	127.674	98.4309	-24.8888	152.107	43.7596	3.58206	155.041	56.9077	-15.8134	161.167	69.3387	-29.6255	141.045	42.271	43.596	151.968	31.587	70.194	114.559	35.7337	65.0728	
106	0.883333	92.4753	5.43594	70.5484	71.7596	2.01587	49.6806	50.3639	3.82736	27.5778	38.6585	1.10142	12.4836	83.9295	60.2576	15.7675	69.8988	73.6497	3.53674	56.0261	90.9221	-11.6915	111.647	71.6006	9.31437	104.933	92.448	-4.921	96.779	118.221	-22.5858	130.333	62.6855	4.90001	130.028	78.1639	-10.2387	128.953	95.6649	-27.5039	154.841	40.1766	3.42686	159.74	53.0437	-18.6219	165.443	63.0519	-32.7091	146.206	43.1201	42.8302	157.43	30.6629	69.3449	116.695	37.5245	64.2637	
107	0.891667	94.424	5.60916	69.8947	76.4226	3.44928	45.2122	52.4993	4.79652	25.5411	36.2599	2.10271	11.6801	84.4203	60.6453	17.7696	66.5136	76.3343	4.08808	55.3848	93.1521	-13.1776	111.918	73.1077	9.34733	105.957	91.4683	-5.31222	104.195	113.8	-21.9755	132.512	60.3076	2.95319	136.403	78.3131	-16.3167	132.552	92.7128	-33.926	155.961	40.7768	-0.94701	158.445	48.6141	-17.6693	160.635	60.0609	-39.118	147.463	41.1982	42.0568	154.773	32.1471	67.2653	118.868	36.8822	65.5623	
108	0.9	98.6655	6.25552	67.9645	74.3962	3.88136	43.9019	51.1875	2.24129	26.8653	38.8471	1.92341	8.88922	88.0893	60.1856	16.8777	70.5256	78.4516	1.12512	58.0806	93.9472	-12.654	114.594	67.5693	10.6607	113.98	89.8895	-7.20031	105.948	113.675	-23.8506	135.219	60.371	-1.53817	138.507	74.4069	-20.3022	137.479	89.0377	-43.2999	155.265	39.7664	-5.46207	155.662	44.2858	-22.2453	159.575	51.3436	-46.38	149.786	39.0589	41.6438	154.991	31.4899	67.5987	120.935	38.7067	65.1451	
109	0.908333	96.8997	7.57363	67.5957	78.8191	3.3461	44.3657	54.1936	3.15329	22.1497	41.3486	1.75031	5.25529	89.311	59.6936	17.8191	75.0474	76.2112	2.83624	63.753	96.887	-12.8383	119.855	71.4328	5.57189	111.95	90.0977	-8.88022	112.241	112.696	-26.4251	138.927	56.8067	-4.49634	138.825	68.6231	-23.5782	135.537	79.5037	-48.8905	152.665	37.7759	-5.65262	153.463	39.6823	-29.1923	150.405	41.0288	-51.4245	149.481	39.4316	41.271	160.104	30.9925	66.1924	123.54	35.8911	64.3106	
110	0.916667	96.0866	9.88868	63.9656	78.1165	2.71144	41.0311	55.3418	1.16055	23.7635	41.0003	0.654707	2.79931	95.3887	61.3919	14.6806	78.9149	80.2902	-1.0728	67.3954	97.2053	-11.5272	118.501	69.1026	7.66835	117.177	91.9181	-14.3677	114.599	113.685	-31.2676	138.357	53.8527	-4.58332	133.157	67.2956	-30.754	131.097	70.3675	-53.06	153.327	35.8061	-7.63076	147.67	35.5491	-29.0076	147.634	33.6719	-54.3688	152.225	38.953	41.507	160.088	27.4241	67.8307	123.464	39.6529	62.9044	
111	0.925	99.7952	9.65695	62.0605	81.2472	2.52816	39.4554	58.8881	0.915572	20.8905	47.4692	-0.528277	-0.612604	95.4273	63.5105	13.4187	81.1186	81.5891	-1.36061	70.7188	98.8833	-13.0515	122.375	69.0115	3.6523	116.591	87.524	-15.1136	114.902	111.959	-39.1206	139.001	52.6542	-8.63845	132.139	60.1665	-33.8816	128.29	60.1198	-62.6981	151.018	32.7187	-6.12332	145.696	30.6715	-30.5735	141.984	25.6804	-52.4442	147.743	42.3528	39.4935	162.223	29.8227	64.9962	124.248	38.8973	65.8607	
112	0.933333	99.6285	11.2648	61.5068	83.6659	5.62145	34.2643	63.6821	2.21567	14.7679	52.1405	0.055798	-7.96574	94.931	63.1897	12.7304	85.1662	82.8148	-4.50082	78.4925	97.61	-14.531	120.628	71.1014	-2.15595	121.298	84.7059	-20.5017	114.676	105.557	-45.2246	135.531	51.905	-12.1503	131.32	54.0983	-39.7288	126.045	46.82	-67.7145	152.094	30.8948	-9.5227	145.902	26.3743	-34.252	136.018	16.7276	-53.4592	152.484	43.8829	37.3345	161.605	31.0481	64.1083	124.847	39.1175	61.3795	
113	0.941667	98.8333	11.3415	63.2604	81.4251	3.47073	36.3936	64.9005	4.6231	8.48119	57.9023	0.301293	-10.9646	99.6162	65.1728	10.418	86.2927	80.5059	-2.80216	84.0692	102.581	-18.0981	127.455	66.5288	-3.98255	123.854	84.0096	-29.7728	117.817	97.1748	-50.2847	135.462	48.187	-14.3556	134.706	47.2385	-42.1618	123.12	37.7838	-68.6848	150.751	29.7134	-13.3349	140.045	23.6679	-33.9949	134.952	11.64	-51.7647	152.193	41.8709	36.0027	161.295	27.3401	65.7537	126.328	38.7089	62.8551	
114	0.95	100.397	12.6661	59.3981	86.2297	5.22218	33.5531	73.4857	4.3614	7.72942	65.7492	4.075	-17.9619	99.5041	66.5252	8.36242	89.9719	82.8945	-8.63047	87.4999	101.031	-21.9594	128.659	67.4803	-8.29519	120.652	78.4259	-30.0292	115.267	90.6218	-57.1049	135.115	47.2999	-15.8275	130.934	42.2856	-45.0657	123.917	30.3442	-64.7626	153.541	29.4408	-12.7291	141.446	20.8977	-35.0263	133.758	6.78997	-49.9977	156.692	40.5286	39.3971	160.767	31.4413	62.6991	126.814	39.2936	63.0522	
115	0.958333	101.528	10.701	61.6198	85.2028	4.3036	31.2298	73.3261	3.33911	4.44982	73.7182	2.38228	-20.9256	104.371	65.3007	5.93071	92.4474	81.5947	-13.2588	86.0371	99.6859	-29.0245	125.595	65.7977	-9.75936	121.794	75.064	-38.9651	111.645	84.6186	-66.3351	139.557	42.9367	-15.0076	128.46	38.7621	-42.3929	120.858	21.0873	-63.7724	150.052	29.6026	-12.4402	138.34	20.4725	-33.3	128.257	6.14288	-47.5039	156.131	39.7218	38.9355	162.244	28.018	63.7648	130.786	42.6068	60.1346	
116	0.966667	104.8	13.4017	56.2154	87.6862	5.70204	26.2992	75.5815	4.54858	-2.28788	77.5174	2.62886	-23.2587	105.751	64.6572	1.69032	94.223	78.9312	-21.4231	93.7326	90.7503	-42.6711	123.637	65.5095	-13.567	120.914	70.1818	-42.6061	113.545	75.2627	-70.1483	136.528	43.1172	-19.4735	130.332	34.4134	-44.0874	120.049	14.6497	-60.0646	150.173	31.7888	-12.4452	143.554	23.2218	-32.3744	127.699	3.28565	-45.4643	154.414	43.1574	35.2755	162.815	29.5343	66.354	128.653	42.5563	62.7333	
